<?xml version="1.0" encoding="utf-8"?>
<!-- Generator: Adobe Illustrator 16.0.0, SVG Export Plug-In . SVG Version: 6.00 Build 0)  -->
<!DOCTYPE svg PUBLIC "-//W3C//DTD SVG 1.1//EN" "http://www.w3.org/Graphics/SVG/1.1/DTD/svg11.dtd">
<svg width="35" height="40" viewBox="0 0 35 40" fill="none" xmlns="http://www.w3.org/2000/svg">
	<path d="M1.53125 33.1838L10.6888 30.8413L14.2866 32.953L16.7111 29.1988L26.1159 26.9336L32.2751 31.7797L23.2349 34.9429L21.4038 38.5843L17.2586 35.7686L8.34238 38.3497L1.53125 33.1838Z" fill="#00AA66"/>
	<path d="M27.2461 2.48291L33.7073 5.63297V31.1846L27.2461 26.1911" fill="#00AA66"/>
	<path d="M33.8489 33.0377C33.6397 33.0377 33.4316 32.9707 33.2581 32.8408L26.0572 27.4354C25.6228 27.1088 25.5349 26.4926 25.8612 26.0581C26.1873 25.6229 26.8039 25.5366 27.2384 25.8616L32.8649 30.0855V6.88058L26.0572 1.77038C25.6228 1.44401 25.5349 0.827747 25.8612 0.393235C26.1873 -0.0420853 26.8039 -0.128439 27.2384 0.1968L34.4392 5.60222C34.6866 5.78833 34.8323 6.07951 34.8323 6.38909V32.0539C34.8323 32.4266 34.6217 32.7673 34.2882 32.9341C34.1493 33.0037 33.9987 33.0377 33.8489 33.0377Z" fill="#141E25"/>
	<path d="M21.4817 40.0002C21.2706 40.0002 21.063 39.9319 20.8911 39.8032L13.69 34.3978C13.2556 34.0713 13.1677 33.455 13.494 33.0205C13.8201 32.5854 14.4367 32.4985 14.8712 32.8241L21.1561 37.5421L22.6158 34.8201L16.0905 29.9216C15.656 29.5951 15.5682 28.9788 15.8944 28.544C16.2202 28.1097 16.8373 28.0228 17.2717 28.3481L24.4724 33.7538C24.8611 34.0458 24.9785 34.5775 24.7489 35.0059L22.3486 39.4811C22.213 39.7342 21.9738 39.9151 21.6938 39.9768C21.6234 39.9924 21.5522 40.0002 21.4817 40.0002Z" fill="#141E25"/>
	<path d="M8.18458 39.6215C7.97378 39.6215 7.76604 39.5537 7.59398 39.4246L0.393207 34.0192C-0.0413054 33.6926 -0.129114 33.0764 0.197094 32.6419C0.523624 32.2067 1.13988 32.1199 1.57423 32.4454L8.39861 37.5685L16.9896 35.3829C17.5177 35.2486 18.0513 35.5672 18.1853 36.0933C18.3193 36.6201 18.0011 37.1552 17.4745 37.2891L8.42701 39.5908C8.34695 39.6115 8.2656 39.6215 8.18458 39.6215Z" fill="#141E25"/>
	<path d="M23.8778 35.5245C23.4367 35.5245 23.0354 35.2261 22.924 34.7786C22.7925 34.2515 23.1134 33.7177 23.6405 33.5863L33.6111 31.1001C34.139 30.9676 34.6722 31.2893 34.8034 31.8166C34.9349 32.344 34.6141 32.8777 34.0869 33.009L24.1163 35.4951C24.0365 35.5152 23.9564 35.5245 23.8778 35.5245Z" fill="#141E25"/>
	<path d="M13.9086 34.3064C13.6862 34.3064 13.4684 34.2309 13.2927 34.0897L10.3497 31.7262L1.2217 34.0025C0.928424 34.0763 0.617066 34.0098 0.378019 33.8232C0.139457 33.6366 0 33.3507 0 33.0481V7.38294C0 6.93116 0.307645 6.5378 0.745708 6.42853L26.4109 0.0296323C26.7043 -0.0446158 27.0157 0.0226916 27.2544 0.208796C27.4931 0.395385 27.6326 0.68124 27.6326 0.984043V26.6489C27.6326 27.1007 27.3249 27.494 26.8867 27.6033L17.2875 29.9967L14.729 33.8651C14.5764 34.0961 14.3338 34.252 14.0603 34.2943C14.0098 34.3026 13.9591 34.3064 13.9086 34.3064ZM10.585 29.6701C10.8065 29.6701 11.0244 29.7452 11.2008 29.8869L13.6831 31.8803L15.8578 28.5922C15.9935 28.3866 16.2014 28.2399 16.4403 28.1802L25.665 25.8802V2.24287L1.96741 8.15141V31.7888L10.3471 29.6995C10.4257 29.6796 10.5056 29.6701 10.585 29.6701ZM26.6488 26.6489H26.6531H26.6488Z" fill="#141E25"/>
	<path d="M15.7917 20.7757C14.8371 21.9409 13.8606 22.5753 12.8899 22.6611C11.8094 22.7536 11.075 22.1456 11.0322 22.1093C10.6599 21.7828 10.0915 21.817 9.76066 22.1879C9.42815 22.5611 9.46092 23.1328 9.8341 23.4653C9.88349 23.5093 10.994 24.481 12.666 24.481C12.7766 24.481 12.8894 24.4767 13.0045 24.4676C14.4946 24.3511 15.9034 23.4947 17.1913 21.9227C17.5081 21.5363 17.4515 20.9662 17.0651 20.6492C16.6786 20.3327 16.1082 20.3892 15.7917 20.7757Z" fill="#141E25"/>
	<path d="M8.76586 16.2391C8.83721 16.1683 8.92759 16.1195 9.02589 16.0985L10.073 15.8764L12.7756 13.4103V12.5746L14.2886 12.1771V15.2928C14.2886 15.3683 14.2941 15.6745 14.3647 16.0712L16.3125 14.1368C16.3839 14.0659 16.4743 14.0172 16.5726 13.9962L17.6195 13.7742L20.447 11.1941V9.88751C20.447 9.87702 20.4456 9.86669 20.4451 9.85636C20.4448 9.84554 20.4441 9.83505 20.4433 9.82424C20.4396 9.77307 20.432 9.72287 20.4196 9.6738C20.4189 9.67122 20.4189 9.6688 20.4183 9.66622C20.4172 9.66154 20.4147 9.6575 20.4135 9.65282C20.3989 9.60133 20.381 9.55097 20.3576 9.50319C20.356 9.49997 20.3539 9.49706 20.3523 9.49383C20.3307 9.45122 20.3048 9.41087 20.2764 9.37229C20.2704 9.36422 20.2651 9.35583 20.259 9.34808C20.2298 9.31112 20.1972 9.2769 20.162 9.24478C20.1536 9.23719 20.1452 9.22993 20.1366 9.22266C20.127 9.21459 20.1181 9.20572 20.1081 9.19797C20.0795 9.17602 20.0498 9.15633 20.0191 9.13825C20.0143 9.13534 20.0091 9.13308 20.0043 9.13034C19.9639 9.10758 19.9221 9.08853 19.879 9.07255C19.8713 9.06965 19.8639 9.06626 19.8559 9.06352C19.8108 9.04818 19.7641 9.03721 19.717 9.02946C19.7058 9.02768 19.6949 9.02607 19.6837 9.02462C19.6358 9.01864 19.5875 9.01622 19.5389 9.01832C19.5301 9.01864 19.5213 9.01977 19.5126 9.02042C19.4598 9.02429 19.4071 9.03172 19.3549 9.04528L7.26653 12.2216C6.884 12.3222 6.61719 12.6681 6.61719 13.0637V14.4003V17.3084C6.61719 17.3948 6.6238 17.7825 6.72759 18.2633L8.76586 16.2391Z" fill="#141E25"/>
	<path d="M20.4465 12.6104L18.2193 14.6428C18.1505 14.7054 18.0662 14.7489 17.9752 14.7681L16.9401 14.9877L14.7227 17.1897C14.8918 17.5293 15.1247 17.8549 15.4514 18.1068C15.8625 18.4238 16.5769 18.7424 17.6467 18.4616C18.8789 18.1378 19.7555 17.2415 20.182 15.8694C20.4574 14.9837 20.4511 14.1926 20.4465 14.0353V12.6104Z" fill="#141E25"/>
	<path d="M12.7774 14.8271L10.6749 16.7457C10.6061 16.8084 10.522 16.8517 10.431 16.8711L9.3957 17.0906L7.125 19.3456C7.28689 19.6341 7.50044 19.9057 7.78226 20.1231C8.08199 20.3541 8.54265 20.5862 9.18474 20.5862C9.42362 20.5862 9.68753 20.5541 9.97758 20.4779C11.2098 20.1541 12.0864 19.2578 12.5128 17.8858C12.7882 17 12.7819 16.209 12.7774 16.0518V14.8271Z" fill="#141E25"/>
</svg>
