<?xml version="1.0" encoding="utf-8"?>
<!-- Generator: Adobe Illustrator 16.0.0, SVG Export Plug-In . SVG Version: 6.00 Build 0)  -->
<!DOCTYPE svg PUBLIC "-//W3C//DTD SVG 1.1//EN" "http://www.w3.org/Graphics/SVG/1.1/DTD/svg11.dtd">
<svg version="1.1" id="Layer_1" xmlns="http://www.w3.org/2000/svg" xmlns:xlink="http://www.w3.org/1999/xlink" x="0px" y="0px"
	 width="676px" height="92px" viewBox="15.39 13.71 676 92" enable-background="new 15.39 13.71 676 92" xml:space="preserve">
<path d="M18.57,65.14V36H41.46v23.17c0,6.07,2.78,9.351,10.939,9.351c7.761,0,13.931-4.681,13.931-12.74V36h22.88v49.14H66.33
	c0.199-3.09,0.3-8.859,0.3-13.83h-0.2c-3,8.75-9.85,14.82-24.37,14.82C25.54,86.13,18.57,76.78,18.57,65.14z"/>
<path d="M96.66,36h22.89l-0.3,9.76h0.2C122.14,39,129,35,140.44,35c18.61,0,28,9.55,28,24.48c0,17.9-10.939,26.66-28.25,26.66
	c-11.25,0-17.62-4.08-20.899-9.449h-0.101c0.101,2.39,0.4,7,0.4,9.55v18.61H96.66V36z M145.52,60.18c0-6.37-3.779-10.25-12.34-10.25
	c-8.56,0-13.63,4.18-13.63,11.25v1.09c0.3,5,4.88,9,13.729,9c8.461-0.061,12.24-3.551,12.24-11.11V60.18z"/>
<path d="M178.94,66.33V51.61h-8.26V36h6.771c3.079,0,4.27-1.39,4.77-4.87l0.9-6.27h18.699V36H224v15.61H201.82v13
	c0,4.779,2.69,6.17,11.54,6.17c3.345-0.032,6.685-0.266,10-0.7v14.76c-5.151,0.938-10.384,1.371-15.619,1.29
	C185.9,86.13,178.94,77.771,178.94,66.33z"/>
<path d="M231.07,16.48H254v14H231.07V16.48z M231.07,35.98H254v49.16H231.07V35.98z"/>
<path d="M261.6,36h22.89l-0.3,13.93h0.101C287.17,41.46,293.64,35,305.48,35c12.44,0,18.71,5.37,20.5,15h0.1
	c2.591-8.65,9.95-15,21.29-15c15,0,20.7,8,20.7,20.3v29.84h-22.89V61.26c0-5.77-2.29-8.66-8.561-8.66c-5,0-10.34,3.18-10.34,10.75
	V85.14h-22.89V61.26c0-5.77-2.38-8.66-8.55-8.66c-5.08,0-10.35,3.18-10.35,10.75V85.14H261.6V36z"/>
<path d="M440.68,63.94H397c0.6,5.379,3.579,9,12.84,9c8.16,0,10.75-2.19,11.239-5.08h19.601c-0.3,10.25-8.851,18.31-31.641,18.31
	c-27.159,0-35.119-12.54-35.119-25.069c0-16.621,12.939-26.07,34.529-26.07c21.891,0,32.23,8.76,32.23,24.479V63.94z M421.079,54.29
	c0-3.88-2.68-7.06-11.239-7.06c-8,0-11.34,2.58-12.54,7.86h23.779V54.29z"/>
<path d="M477.329,61.229c0-13.56,9.181-24.899,27.46-24.899c18.521,0,25.42,10,25.42,20.35h-9.85C520.28,51.25,516.15,46,505,46
	c-11.45,0-16.841,6.68-16.841,15.21c0,8,4.38,15.21,16.42,15.21c11.71,0,15.91-5,16-10.46h9.851c0,10-6.82,20.15-26.271,20.15
	C484.829,86.13,477.329,73.34,477.329,61.229z"/>
<path d="M537.619,61.33c0-12.6,8.091-25,28.551-25s28.539,12.4,28.539,25c0,12.601-7.909,24.8-28.539,24.8
	C545.539,86.13,537.619,74,537.619,61.33z M583.93,61.33c0-7.95-4.8-15.31-17.76-15.31c-12.961,0-17.771,7.36-17.771,15.31
	s4.72,15.11,17.771,15.11C579.22,76.44,583.93,69.271,583.93,61.33z"/>
<path d="M603.18,37.3H614l-0.171,14.15h0.08c2.78-9.79,9-15.12,19.29-15.12c11.2,0,17.261,5.91,18.771,15H652
	c2.27-10.08,9.35-15,19.539-15c13.131,0,19,7.94,19,20.73v28.1H679.8v-24.9c0-8.91-3.45-13.76-12.2-13.76c-7,0-15.33,4.85-15.33,17
	v21.7h-10.78V60.26c0-8.91-3.53-13.76-12.29-13.76c-7,0-15.239,5.43-15.239,17v21.7h-10.78V37.3z"/>
<path fill="#00AA66" d="M453.39,74.14c0.267-0.264,0.625-0.414,1-0.42h4.689l8.141-8.14c-4.723-4.53-12.225-4.375-16.755,0.348
	c-3.406,3.551-4.264,8.837-2.155,13.282L453.39,74.14z"/>
<path fill="#00AA66" d="M460.72,76.181c-0.263,0.271-0.623,0.426-1,0.43H455l-5.11,5.109c4.139,5.077,11.609,5.838,16.687,1.699
	c4.671-3.808,5.744-10.514,2.493-15.589L460.72,76.181z"/>
</svg>
