<svg width="312" height="61" viewBox="0 0 312 61" fill="none" xmlns="http://www.w3.org/2000/svg">
<g clip-path="url(#clip0_348_2471)">
<path d="M29.7017 0.813034C46.0431 0.813034 59.2905 14.2446 59.2905 30.813C59.2905 47.3814 46.0431 60.813 29.7017 60.813C13.3603 60.8129 0.112793 47.3814 0.112793 30.813C0.112793 14.2447 13.3603 0.813129 29.7017 0.813034ZM30.0083 13.6753C20.6669 13.6753 13.0933 21.3493 13.0933 30.814C13.0938 40.2787 20.6672 47.9507 30.0083 47.9507C33.7323 47.9506 37.1752 46.7308 39.9692 44.6646L36.3042 38.2339C34.6117 39.7102 32.4117 40.6068 30.0083 40.607C24.679 40.607 20.3428 36.2135 20.3423 30.814C20.3423 25.4145 24.6787 21.021 30.0083 21.021L33.3159 14.0044C32.2463 13.7894 31.1406 13.6754 30.0083 13.6753ZM33.479 28.3599L29.2983 35.7007H37.6587L41.8384 43.0435L46.0181 35.7007L41.8384 28.3599H33.479ZM38.7056 14.9019C37.8656 14.902 37.1006 15.1189 36.3979 15.5669C35.7109 15.9998 35.1911 16.5564 34.8706 17.2515L36.3374 18.7349C36.9024 17.5761 37.7285 17.0044 38.813 17.0044C39.7294 17.0046 40.2953 17.484 40.2954 18.148C40.2952 18.7045 40.0191 19.1685 38.9653 19.7095L38.3687 20.0025C37.0708 20.6668 36.1695 21.4236 35.6499 22.2886C35.1308 23.1384 34.8707 24.2366 34.8706 25.5503V25.9058H42.5249V23.7896H37.4683C37.6056 22.9861 38.0942 22.5369 39.0874 22.0269L40.019 21.5484C41.6844 20.6833 42.5708 19.7077 42.5708 18.1158C42.5705 17.1119 42.188 16.3238 41.4243 15.7525C40.676 15.1809 39.7593 14.902 38.7056 14.9019Z" fill="white"/>
</g>
<path d="M217.636 47.5177V14.2432H222.309V28.263H240.239V14.2432H244.912V47.5177H240.239V32.5543H222.309V47.5177H217.636Z" fill="white"/>
<path d="M198.741 47.967C195.573 47.967 192.742 47.2256 190.27 45.7652C187.799 44.2823 185.844 42.2603 184.451 39.6765C183.058 37.0927 182.362 34.127 182.362 30.7793C182.362 27.4092 183.058 24.4435 184.451 21.8597C185.844 19.2759 187.776 17.2539 190.225 15.771C192.652 14.3106 195.483 13.5692 198.651 13.5692C201.819 13.5692 202.672 13.9511 204.537 14.6926C206.425 15.434 208.087 16.4675 209.57 17.7706C211.053 19.0962 212.176 20.624 212.985 22.354L208.784 24.2637C208.2 22.9606 207.368 21.8373 206.312 20.8936C205.279 19.95 204.088 19.1861 202.762 18.6469C201.459 18.1076 200.089 17.838 198.651 17.838C196.427 17.838 194.449 18.3997 192.697 19.5231C190.967 20.624 189.596 22.1518 188.608 24.084C187.619 26.0162 187.125 28.2405 187.125 30.7793C187.125 33.3182 187.642 35.5649 188.63 37.5196C189.641 39.4967 191.012 41.0245 192.787 42.1255C194.539 43.2039 196.539 43.7656 198.808 43.7656C201.055 43.7656 201.639 43.4735 202.942 42.8893C204.245 42.2827 205.414 41.4964 206.447 40.4629C207.481 39.4293 208.312 38.2386 208.941 36.913L213.12 38.7778C212.334 40.5752 211.21 42.1704 209.75 43.5634C208.289 44.9564 206.604 46.0348 204.717 46.8212C202.83 47.6075 200.853 47.9895 198.763 47.9895L198.741 47.967Z" fill="white"/>
<path d="M161.49 48.0569H161.467C158.232 48.0569 155.379 47.3155 152.862 45.8551C150.368 44.4171 148.414 42.3726 146.998 39.7888C145.583 37.1826 144.886 34.2169 144.886 30.8467C144.886 27.4991 145.583 24.5334 146.998 21.9496C148.414 19.3658 150.346 17.3437 152.84 15.8834C155.311 14.4005 158.165 13.6591 161.4 13.6591C164.635 13.6591 167.489 14.4005 169.96 15.8834C172.431 17.3437 174.364 19.3658 175.757 21.9496C177.15 24.5334 177.869 27.4991 177.869 30.8467C177.869 31.1613 177.846 31.4534 177.846 31.7454V47.0458H173.173V43.3387C172.229 44.3273 171.173 45.1586 169.982 45.8551C167.534 47.3155 164.703 48.0569 161.49 48.0569ZM161.467 43.7656C163.759 43.7656 165.781 43.2264 167.511 42.103C169.264 41.0021 170.634 39.4743 171.6 37.5645C172.589 35.6323 173.083 33.3856 173.083 30.8467C173.083 28.3304 172.589 26.1286 171.578 24.1739C170.589 22.2417 169.196 20.7139 167.444 19.5905C165.691 18.4896 163.669 17.9504 161.377 17.9504C159.108 17.9504 157.064 18.4896 155.289 19.5905C153.514 20.7139 152.143 22.2417 151.132 24.1739C150.144 26.1286 149.627 28.3528 149.627 30.8467C149.627 33.3631 150.144 35.6323 151.155 37.5645C152.166 39.4968 153.559 41.0021 155.356 42.103C157.154 43.2264 159.198 43.7656 161.467 43.7656Z" fill="white"/>
<path d="M131.631 41.5638C133.248 40.4853 134.506 39.0249 135.383 37.2275L139.921 39.5192C139.067 41.2268 137.966 42.7096 136.551 43.9903C135.203 45.2709 133.585 46.237 131.698 46.956C129.856 47.6525 128.71 47.9895 125.519 47.9895C122.329 47.9895 119.498 47.2705 117.027 45.8326C114.578 44.3273 112.646 42.3052 111.253 39.7214C109.882 37.1377 109.208 34.1719 109.208 30.8018C109.208 27.4317 109.882 24.4435 111.253 21.8597C112.646 19.2984 114.555 17.2763 116.959 15.8384C119.408 14.3331 122.307 13.5917 125.385 13.5917C128.44 13.5917 131.091 14.3556 133.338 15.8834C135.562 17.3887 137.315 19.4782 138.528 22.1967C139.764 24.9153 140.371 28.1057 140.371 31.7904H114.578C114.668 33.9248 115.139 35.8121 115.926 37.4297C116.892 39.2945 118.217 40.7549 119.925 41.766C121.633 42.7096 123.452 43.2039 125.789 43.2039C128.103 43.2039 130.058 42.6422 131.631 41.5638ZM120.195 19.5006C118.622 20.3319 117.319 21.5002 116.33 23.028C115.521 24.2638 115.05 25.7017 114.915 27.3643H134.754C134.641 25.7466 134.237 24.2862 133.54 23.028C132.709 21.5002 131.586 20.3319 130.193 19.5006C128.8 18.6693 127.115 18.2425 125.34 18.2425C123.542 18.2425 121.835 18.6693 120.195 19.5006Z" fill="white"/>
<path d="M80.6062 14.2208H93.188C99.5463 14.2208 104.691 19.3658 104.691 25.7017V25.9938C104.557 31.2961 100.849 35.6997 95.8841 36.868L103.905 47.4503H97.3894L89.6157 37.2051H79.5951V47.4503H74.9219V14.1983H80.6062V14.2208ZM79.5727 32.734H92.3792C96.2661 32.734 99.4115 29.5886 99.4115 25.7241C99.4115 21.9496 96.4458 18.8715 92.7386 18.6918H92.3792H79.5727V32.7565V32.734Z" fill="white"/>
<path d="M305.193 47.6619H260.543V13.9636H305.193V47.6619ZM286.37 22.5027L285.335 31.947L288.368 32.6121C288.598 32.3 288.927 32.0286 289.354 31.7986C289.782 31.5686 290.25 31.4539 290.76 31.4539C291.614 31.4539 292.296 31.7251 292.806 32.2673C293.332 32.8097 293.595 33.4836 293.595 34.2888C293.595 35.1599 293.324 35.8585 292.781 36.3845C292.255 36.8941 291.565 37.1501 290.71 37.1501C290.168 37.1501 289.641 37.0266 289.132 36.78C288.639 36.5335 288.212 36.1467 287.851 35.6208L284.768 36.533C285.08 37.3054 285.565 37.9552 286.223 38.4812C286.897 39.0072 287.645 39.4018 288.467 39.6648C289.305 39.9277 290.118 40.0593 290.907 40.0593C292.124 40.0593 293.193 39.8122 294.113 39.3191C295.034 38.8095 295.757 38.1109 296.283 37.2234C296.809 36.3358 297.072 35.3083 297.072 34.1414C297.072 33.106 296.842 32.2019 296.382 31.4294C295.938 30.6406 295.33 30.0236 294.558 29.5798C293.785 29.1196 292.929 28.8895 291.992 28.8894C291.368 28.873 290.784 28.9468 290.242 29.1111C289.7 29.259 289.206 29.4563 288.762 29.7029L289.256 25.5603H296.135V22.5027H286.37ZM274.951 22.1824C273.834 22.1824 272.831 22.4046 271.943 22.8484C271.072 23.2758 270.365 23.8427 269.822 24.5496C269.28 25.2562 268.927 26.0209 268.763 26.8425L272.239 27.4343C272.338 27.0563 272.51 26.7025 272.757 26.3738C273.003 26.0452 273.315 25.7819 273.693 25.5847C274.088 25.3875 274.532 25.2888 275.025 25.2888C275.601 25.2888 276.086 25.3876 276.48 25.5847C276.875 25.782 277.171 26.054 277.368 26.3992C277.582 26.7443 277.688 27.1311 277.688 27.5583C277.688 27.9033 277.582 28.2646 277.368 28.6423C277.171 29.0039 276.908 29.3418 276.579 29.6541C276.267 29.9662 275.93 30.2455 275.568 30.4919L272.954 32.366C272.248 32.859 271.631 33.3934 271.105 33.9685C270.58 34.5438 270.168 35.1198 269.872 35.6951C269.576 36.27 269.429 36.7958 269.429 37.2722V39.7634H281.362V36.8044H273.497C273.678 36.3278 273.941 35.8913 274.286 35.4968C274.631 35.1026 275.042 34.7414 275.519 34.4128L277.861 32.7107C278.88 31.9875 279.678 31.215 280.253 30.3933C280.845 29.555 281.141 28.6013 281.141 27.533C281.141 26.481 280.886 25.5602 280.376 24.7712C279.883 23.9659 279.175 23.333 278.255 22.8728C277.334 22.4127 276.233 22.1824 274.951 22.1824Z" fill="white"/>
<defs>
<clipPath id="clip0_348_2471">
<rect x="0.112793" y="0.813034" width="59.1781" height="60" rx="29.589" fill="white"/>
</clipPath>
</defs>
</svg>
