<?xml version="1.0" encoding="utf-8"?>
<!-- Generator: Adobe Illustrator 16.0.0, SVG Export Plug-In . SVG Version: 6.00 Build 0)  -->
<!DOCTYPE svg PUBLIC "-//W3C//DTD SVG 1.1//EN" "http://www.w3.org/Graphics/SVG/1.1/DTD/svg11.dtd">
<svg version="1.1" id="Layer_1" xmlns="http://www.w3.org/2000/svg" xmlns:xlink="http://www.w3.org/1999/xlink" x="0px" y="0px"
	 width="350px" height="350px" viewBox="75 75 350 350" enable-background="new 75 75 350 350" xml:space="preserve">
<path fill="#00AA66" d="M383.72,353.12c-1.738-0.003-3.43-0.567-4.82-1.61l-58.78-44.13c-3.548-2.662-4.267-7.696-1.604-11.245
	s7.696-4.267,11.245-1.604L375.69,329V139.58l-55.57-41.71c-3.554-2.662-4.276-7.701-1.614-11.255
	c2.662-3.554,7.7-4.277,11.255-1.615l58.779,44.13c2.024,1.513,3.215,3.893,3.211,6.42v209.53c0,4.418-3.582,8-8,8L383.72,353.12z"
	/>
<path fill="#00AA66" d="M282.73,410c-1.738-0.002-3.429-0.566-4.819-1.609l-58.78-44.131c-3.546-2.662-4.262-7.694-1.601-11.24
	c2.662-3.545,7.694-4.262,11.24-1.6l51.3,38.51L292,367.66l-53.271-40c-3.546-2.662-4.262-7.694-1.6-11.24
	c2.662-3.545,7.694-4.262,11.24-1.6L307.15,359c3.184,2.376,4.142,6.727,2.25,10.221l-19.59,36.529
	c-1.104,2.068-3.06,3.549-5.35,4.05C283.892,409.926,283.312,409.993,282.73,410z"/>
<path fill="#00AA66" d="M174.21,406.859c-1.742,0.004-3.438-0.561-4.83-1.609l-58.78-44.12c-3.548-2.662-4.267-7.696-1.604-11.245
	s7.696-4.267,11.244-1.605L176,390.1l70.13-17.84c4.297-1.104,8.675,1.483,9.78,5.78c1.104,4.297-1.483,8.675-5.78,9.78
	l-73.851,18.789C175.604,406.784,174.908,406.869,174.21,406.859z"/>
<line fill="#00AA66" x1="383.72" y1="345.09" x2="302.329" y2="365.38"/>
<path fill="#00AA66" d="M302.32,373.41c-4.415,0.151-8.118-3.305-8.27-7.721c-0.133-3.877,2.535-7.292,6.33-8.1l81.399-20.3
	c4.306-1.071,8.664,1.55,9.735,5.854c1.071,4.306-1.55,8.664-5.855,9.735l-81.39,20.29
	C303.632,373.328,302.977,373.408,302.32,373.41z"/>
<path fill="#00AA66" d="M220.93,363.471c-1.819-0.005-3.583-0.629-5-1.771l-24-19.29L117.36,361
	c-4.277,1.104-8.641-1.468-9.746-5.746c-0.172-0.668-0.258-1.354-0.254-2.044V143.68c-0.01-3.691,2.507-6.909,6.091-7.79L323,83.65
	c4.277-1.104,8.641,1.468,9.746,5.746c0.173,0.671,0.258,1.362,0.254,2.055V301c0.01,3.69-2.507,6.908-6.091,7.79l-78.359,19.54
	l-20.89,31.58c-1.245,1.885-3.228,3.156-5.46,3.5C221.78,363.467,221.355,363.486,220.93,363.471z M193.8,325.62
	c1.819,0.004,3.583,0.628,5,1.771l20.26,16.27l17.75-26.84c1.108-1.679,2.808-2.879,4.76-3.36l75.311-18.78v-193L123.45,150v193
	l68.409-17.061C192.491,325.754,193.143,325.646,193.8,325.62z M324.94,301L324.94,301z"/>
<path fill="#00AA66" d="M236.29,253c-7.801,9.51-15.771,14.689-23.69,15.391c-5.442,0.439-10.853-1.169-15.17-4.511
	c-3.07-2.7-7.749-2.4-10.45,0.67c-2.7,3.071-2.4,7.749,0.67,10.45c6.541,5.31,14.695,8.233,23.12,8.29c0.9,0,1.82,0,2.76-0.11
	c12.171-0.949,23.671-7.939,34.181-20.77c2.599-3.154,2.148-7.816-1.005-10.415C243.551,249.396,238.889,249.847,236.29,253
	L236.29,253z"/>
<path fill="#00AA66" d="M179,216c0.58-0.58,1.316-0.979,2.12-1.15l8.55-1.81l22.06-20.13v-6.82L224,182.82v25.43
	c0.033,2.133,0.241,4.26,0.62,6.36l15.899-15.79c0.585-0.58,1.324-0.979,2.13-1.15l8.54-1.81l23.09-21.06v-10.67
	c0-0.09,0-0.17,0-0.26s0-0.17,0-0.26c-0.031-0.415-0.099-0.826-0.199-1.23c0.004-0.02,0.004-0.04,0-0.06c0,0,0-0.07,0-0.11
	c-0.114-0.419-0.265-0.827-0.45-1.22l-0.05-0.07c-0.175-0.353-0.382-0.687-0.62-1l-0.141-0.19c-0.236-0.307-0.501-0.591-0.79-0.85
	l-0.21-0.18l-0.229-0.2c-0.233-0.178-0.477-0.342-0.73-0.49l-0.12-0.06c-0.319-0.184-0.654-0.341-1-0.47l-0.189-0.08
	c-0.37-0.118-0.748-0.211-1.13-0.28h-0.271c-0.395-0.05-0.792-0.07-1.189-0.06h-0.21c-0.436,0.027-0.867,0.094-1.29,0.2
	l-98.681,25.93c-3.122,0.826-5.298,3.65-5.3,6.88v34.65c0.038,2.621,0.339,5.23,0.9,7.79L179,216z"/>
<path fill="#00AA66" d="M274.31,186.36L256.12,203c-0.565,0.507-1.256,0.853-2,1l-8.45,1.8l-18.101,18
	c1.39,2.916,3.424,5.478,5.95,7.49c3.351,2.59,9.19,5.19,17.92,2.89c10.061-2.64,17.21-10,20.7-21.16
	c1.482-4.86,2.211-9.919,2.16-15L274.31,186.36z"/>
<path fill="#00AA66" d="M211.68,204.45l-17.16,15.66c-0.564,0.507-1.255,0.853-2,1l-8.46,1.8l-18.53,18.41
	c1.34,2.454,3.163,4.611,5.36,6.34c3.283,2.512,7.317,3.844,11.45,3.779c2.186-0.014,4.36-0.31,6.47-0.879
	c10.061-2.641,17.22-10,20.7-21.161c1.493-4.858,2.223-9.918,2.16-15L211.68,204.45z"/>
</svg>
